<?xml version="1.0" standalone="no"?>
<!DOCTYPE svg PUBLIC "-//W3C//DTD SVG 20010904//EN"
 "http://www.w3.org/TR/2001/REC-SVG-20010904/DTD/svg10.dtd">
<svg version="1.0" xmlns="http://www.w3.org/2000/svg"
 width="320.000000pt" height="320.000000pt" viewBox="0 0 320.000000 320.000000"
 preserveAspectRatio="xMidYMid meet">
<metadata>
Created by potrace 1.14, written by Peter Selinger 2001-2017
</metadata>
<g transform="translate(0.000000,320.000000) scale(0.100000,-0.100000)"
fill="#000000" stroke="none">
<path d="M0 1600 l0 -1600 1018 0 1017 0 -37 22 c-21 12 -38 28 -38 35 0 7
-17 32 -39 56 -45 49 -61 78 -61 106 0 19 -49 81 -64 81 -3 0 -6 -11 -6 -25 0
-35 -22 -23 -64 34 -28 40 -39 48 -68 49 -29 1 -37 -4 -53 -34 -11 -20 -31
-41 -45 -46 -38 -16 -100 -26 -100 -17 0 4 -13 22 -29 39 l-28 32 -22 -35
c-27 -45 -27 -63 4 -91 l25 -23 -40 -18 c-34 -15 -46 -16 -79 -6 -21 6 -52 25
-69 42 -27 27 -38 46 -76 129 -8 17 -34 33 -87 55 -42 17 -84 39 -93 48 -10 9
-23 17 -31 17 -40 0 -143 177 -137 235 7 60 12 68 42 62 23 -5 33 -1 47 19 10
14 27 26 38 28 31 4 42 49 21 81 -10 15 -23 24 -31 21 -8 -3 -18 1 -22 8 -5 7
-19 19 -32 26 -19 10 -25 10 -32 -1 -4 -7 -5 -17 -3 -21 3 -4 0 -8 -5 -8 -6 0
-11 9 -11 20 0 18 -7 20 -54 20 -49 0 -57 3 -76 30 -12 17 -19 38 -17 48 3 11
5 9 6 -8 l1 -25 20 30 c11 17 20 23 20 15 0 -10 3 -11 8 -4 4 6 15 10 25 8 12
-2 17 5 17 24 0 21 2 24 10 12 8 -13 10 -12 10 3 0 9 5 17 10 17 6 0 11 -8 12
-17 0 -10 2 -22 3 -28 2 -5 4 -17 5 -25 1 -11 4 -9 10 5 5 11 9 14 9 8 1 -7 9
-13 19 -13 14 0 15 2 2 10 -8 5 -10 10 -4 10 6 0 12 12 12 27 0 25 -1 26 -12
5 -8 -15 -15 -19 -26 -12 -10 7 -11 10 -2 10 8 0 10 8 6 24 -10 40 -11 170 -2
189 5 9 5 17 1 17 -4 0 -8 42 -9 93 -1 63 -5 91 -13 89 -6 -1 -11 2 -11 8 0 5
-5 10 -10 10 -14 0 -45 29 -75 71 -14 18 -25 28 -25 22 0 -6 -13 1 -29 15 -51
48 -61 53 -81 47 -12 -4 -20 -2 -20 5 0 6 -5 8 -10 5 -6 -3 -10 -1 -10 5 0 6
-4 9 -8 6 -5 -3 -15 3 -23 13 -13 14 -13 19 -3 29 7 7 19 12 25 12 7 0 4 7 -7
15 -10 9 -13 14 -5 13 7 -2 15 5 16 15 2 12 -3 17 -21 17 -13 0 -24 5 -24 11
0 5 -4 7 -10 4 -5 -3 -10 -1 -10 4 0 6 5 11 11 11 5 0 7 6 3 13 -6 9 -4 9 7 0
18 -18 27 -16 40 8 8 15 8 19 0 15 -20 -13 -25 26 -8 57 10 16 15 32 12 37 -3
4 3 11 12 14 15 6 15 8 3 16 -9 6 -10 10 -3 10 6 0 9 9 6 20 -3 11 0 20 6 20
13 0 10 22 -4 32 -6 4 -2 8 8 8 21 0 22 16 1 24 -13 5 -14 9 -4 21 7 8 18 15
24 15 7 0 6 -4 -2 -9 -11 -7 -10 -10 3 -15 23 -9 24 -8 19 12 -3 9 0 28 6 42
l10 25 -3 -27 c-3 -16 -2 -28 0 -28 11 0 46 41 40 47 -4 3 -7 1 -7 -5 0 -25
-16 -11 -17 16 -1 15 1 21 4 14 4 -10 9 -9 20 5 8 10 12 13 9 7 -3 -7 9 -19
27 -28 29 -14 33 -14 44 1 9 11 10 20 2 29 -7 8 -7 14 1 19 5 3 10 1 10 -4 0
-6 5 -11 11 -11 6 0 8 7 4 18 -5 13 -3 14 5 6 9 -9 9 -17 -1 -31 -14 -23 -6
-53 13 -53 9 0 8 3 -2 10 -12 8 -13 10 -1 10 8 0 23 -8 33 -17 11 -10 18 -13
16 -7 -2 6 8 21 22 33 14 11 18 19 9 15 -10 -3 -19 1 -22 10 -7 17 8 32 18 17
3 -6 13 -7 22 -4 10 4 14 2 9 -5 -3 -6 -2 -13 3 -16 5 -4 12 2 14 11 3 11 5 7
6 -10 1 -36 19 -54 50 -52 13 1 31 -7 41 -17 17 -19 18 -19 29 -1 6 10 11 16
11 13 8 -33 7 -39 -3 -34 -7 3 -3 -1 8 -10 11 -8 25 -20 32 -26 7 -5 22 -10
35 -11 23 -1 22 -1 -2 -9 l-25 -8 28 -1 c28 -1 37 -16 15 -24 -7 -3 2 -8 20
-12 24 -6 30 -11 23 -18 -19 -19 -12 -35 18 -45 l29 -10 -10 35 c-5 19 -7 37
-4 41 3 3 6 -2 6 -11 0 -9 5 -17 11 -17 6 0 9 -7 5 -15 -4 -10 1 -15 14 -15
11 0 20 -5 20 -11 0 -6 7 -9 15 -5 8 3 15 2 15 -3 0 -4 6 -8 13 -8 6 0 24 -4
38 -8 16 -4 30 -2 33 4 10 16 26 13 26 -3 0 -8 5 -18 12 -22 7 -5 9 -2 6 8 -4
8 -2 21 3 29 6 10 9 8 9 -10 0 -16 4 -21 14 -18 8 3 17 1 20 -6 3 -9 7 -8 15
3 5 8 24 14 43 13 32 -1 34 1 30 28 -4 26 -1 29 23 29 19 0 28 6 32 20 4 16 8
18 20 9 11 -9 17 -8 28 7 19 25 19 40 1 25 -10 -8 -16 -9 -21 -1 -3 6 -10 8
-15 5 -5 -3 -11 -1 -15 5 -3 5 -1 10 5 10 6 0 8 5 5 10 -3 6 1 10 9 10 9 0 13
-6 10 -14 -6 -17 12 -31 21 -16 4 6 11 8 16 5 17 -11 9 7 -15 36 -13 15 -27
25 -30 22 -3 -4 -6 1 -6 10 0 10 -5 17 -11 17 -5 0 -15 14 -20 30 -6 17 -15
30 -21 30 -5 0 -6 -6 -2 -12 4 -7 -29 23 -74 67 -45 44 -80 85 -78 91 2 6 0
17 -6 25 -8 11 -9 10 -4 -4 4 -12 2 -17 -6 -14 -7 2 -12 11 -10 18 2 8 0 11
-4 6 -14 -13 -64 45 -64 74 0 15 -5 31 -10 34 -8 5 -7 11 0 20 10 11 8 13 -10
10 -17 -3 -20 -1 -14 17 4 14 2 18 -5 14 -15 -10 -13 5 4 28 8 10 12 23 9 28
-9 14 7 49 19 41 7 -4 6 0 -1 10 -8 9 -12 22 -10 29 3 7 -2 19 -11 26 -9 8
-11 11 -6 9 6 -3 15 1 22 8 10 10 9 15 -4 19 -9 4 -20 1 -25 -6 -4 -7 -8 -8
-8 -2 0 5 6 16 13 23 10 11 9 13 -5 8 -10 -3 -19 -3 -22 1 -3 4 5 9 16 9 32 3
32 10 4 44 l-27 31 27 25 c26 24 27 26 8 36 -10 5 -20 11 -22 12 -1 1 1 10 4
19 5 14 9 15 15 4 7 -10 9 -10 9 3 0 8 -4 19 -9 25 -4 5 -11 23 -14 39 -7 32
-3 25 25 -42 7 -18 19 -33 27 -33 10 0 11 3 2 14 -6 8 -11 18 -10 22 4 23 -2
35 -13 28 -7 -4 -10 -4 -6 0 4 5 3 19 -3 33 -6 16 -6 22 1 18 6 -3 10 -1 10 5
0 6 -7 13 -15 16 -21 9 -19 20 5 20 19 0 25 -17 23 -65 -1 -9 2 -10 10 -2 20
20 27 11 27 -38 0 -29 6 -53 14 -60 22 -18 19 -231 -3 -248 -14 -12 -14 -12 2
-7 14 5 17 0 17 -35 0 -23 -5 -41 -10 -41 -6 0 -10 7 -8 16 2 10 -2 19 -8 21
-16 5 -6 -43 12 -57 14 -12 8 -40 -8 -40 -5 0 -6 5 -2 12 4 7 3 8 -4 4 -9 -5
-8 -12 0 -26 8 -12 15 -15 19 -9 6 10 17 -11 40 -76 7 -19 7 -19 8 2 1 12 5
25 11 28 6 3 7 -1 4 -10 -4 -9 -3 -15 2 -14 24 4 42 -3 48 -18 3 -10 9 -25 12
-33 4 -12 4 -12 -4 -1 -6 8 -18 11 -31 6 -20 -6 -20 -25 0 -25 6 0 7 6 3 13
-5 8 -2 8 9 -2 18 -14 22 -22 10 -20 -5 1 -17 1 -28 0 -16 -1 -17 -3 -5 -11 9
-6 17 -5 21 1 3 6 9 10 13 10 19 -3 24 1 29 20 4 15 11 19 25 14 11 -3 23 -1
27 4 4 7 -1 8 -11 4 -14 -5 -16 -2 -12 21 3 14 1 29 -4 32 -4 3 -6 10 -3 15 3
5 -1 6 -10 3 -9 -4 -14 -13 -11 -20 3 -8 1 -14 -4 -14 -5 0 -7 -7 -4 -15 4 -8
1 -15 -5 -15 -8 0 -11 18 -10 53 2 59 8 75 20 56 4 -8 3 -19 -3 -26 -17 -20 7
-15 25 5 10 10 17 34 17 53 0 22 3 29 9 21 6 -10 10 -7 13 12 3 15 1 26 -5 26
-7 0 -6 5 1 12 10 10 15 10 22 -2 7 -10 10 -11 10 -2 0 6 7 12 16 12 13 0 14
3 4 15 -16 20 -3 40 16 24 12 -10 13 -9 8 6 -6 14 -4 16 7 10 8 -5 5 1 -5 13
-11 12 -16 25 -13 29 10 10 -50 43 -78 43 -18 0 -25 5 -25 19 0 11 -3 27 -7
37 -5 12 -3 15 6 9 13 -8 31 10 31 31 0 17 -48 14 -54 -3 -3 -8 -1 -11 4 -8 6
3 10 1 10 -4 0 -6 -5 -11 -11 -11 -8 0 -8 -5 1 -15 7 -8 10 -15 6 -15 -3 0 -1
-11 4 -25 6 -17 6 -25 -1 -25 -7 0 -9 -15 -5 -40 5 -34 3 -38 -8 -28 -8 7 -12
15 -11 18 2 3 -4 6 -14 7 -19 2 -26 -34 -11 -52 13 -16 8 -52 -7 -52 -7 0 -13
7 -13 14 0 8 5 11 10 8 6 -3 10 1 10 10 0 9 -5 13 -10 10 -6 -3 -10 3 -10 14
0 12 -7 21 -15 21 -8 0 -15 -6 -15 -14 0 -8 -6 -17 -12 -20 -10 -5 -10 -7 0
-12 16 -8 15 -21 -2 -21 -9 0 -13 9 -11 26 2 14 -1 34 -6 43 -5 9 -5 19 -1 22
5 3 7 21 6 41 -2 21 1 33 7 30 5 -4 9 -3 8 2 -3 19 2 30 15 30 8 0 12 -6 9
-14 -4 -9 0 -11 10 -7 12 4 15 14 10 35 -3 18 -1 29 5 29 7 0 9 -8 5 -17 -3
-10 -2 -15 2 -10 14 12 12 74 -3 74 -7 0 -10 -7 -7 -15 3 -8 0 -12 -7 -10 -15
5 -19 36 -5 45 15 9 47 11 47 3 0 -3 7 -15 16 -26 15 -18 15 -18 5 2 -6 12 -7
25 -3 28 4 4 -1 12 -11 17 -9 6 -17 15 -17 22 0 8 3 7 9 -2 5 -8 14 -10 21 -6
8 5 11 4 6 -3 -3 -6 0 -16 7 -24 8 -7 12 -24 10 -36 -2 -14 1 -21 7 -17 5 3
10 14 11 23 0 12 3 11 9 -5 5 -13 14 -23 20 -23 14 0 13 12 -6 38 -19 28 -1
29 26 2 12 -12 15 -20 8 -20 -13 -1 31 -29 45 -30 5 0 6 9 2 20 -5 15 -3 18 9
14 15 -6 12 -27 -7 -51 -6 -9 -6 -13 1 -13 5 0 12 -11 14 -25 3 -13 2 -22 -3
-20 -4 3 -11 0 -15 -6 -4 -7 -3 -9 4 -5 6 3 13 2 17 -4 11 -18 22 -10 20 15
-3 24 -3 24 30 11 18 -8 35 -13 37 -11 2 2 9 -4 15 -14 10 -15 9 -18 -4 -17
-9 0 -18 -5 -21 -13 -3 -10 0 -12 12 -8 10 4 15 3 11 -3 -3 -6 1 -10 9 -10 10
0 16 9 16 25 0 14 4 25 9 25 15 0 22 -32 9 -47 -10 -12 -8 -12 16 -2 20 10 29
10 38 1 9 -9 8 -12 -4 -12 -8 0 -21 -7 -28 -15 -9 -10 -9 -15 -1 -15 6 0 11 5
11 10 0 16 20 12 27 -6 3 -9 0 -20 -7 -24 -10 -6 -10 -9 0 -15 8 -5 18 -1 27
10 7 11 13 14 13 8 0 -7 -8 -19 -17 -29 -18 -17 -29 -89 -13 -79 5 3 11 -4 15
-15 4 -14 13 -19 29 -16 15 3 22 -1 24 -13 1 -9 5 -38 8 -66 3 -27 10 -54 14
-59 12 -12 1 -36 -16 -36 -11 0 -9 -6 6 -22 21 -22 28 -54 10 -43 -6 4 -1 -12
11 -34 23 -45 44 -56 29 -16 -6 17 -6 34 1 52 l11 28 15 -34 c11 -27 17 -31
24 -20 12 19 11 32 -2 23 -18 -11 1 59 20 72 78 56 86 87 44 174 -25 53 -26
65 -34 300 -5 135 -6 269 -3 298 l6 52 -206 0 c-180 0 -206 -2 -206 -16 0 -8
-5 -12 -10 -9 -6 4 -8 11 -5 16 4 5 2 9 -3 9 -6 0 -13 -7 -16 -16 -4 -11 -14
-15 -30 -12 -15 3 -27 -2 -35 -14 -11 -17 -13 -17 -27 -3 -9 8 -20 13 -25 10
-5 -4 -6 1 -3 9 8 20 23 20 30 1 4 -8 10 -15 16 -15 5 0 6 5 3 10 -3 6 -3 10
2 11 43 4 54 7 59 12 4 4 -21 6 -55 6 -33 -1 -64 -5 -66 -10 -3 -4 -17 -3 -30
3 -19 8 -28 8 -41 -3 -13 -11 -18 -11 -21 -1 -4 9 -154 12 -709 12 l-704 0 0
-1600z m1296 1571 c0 -16 -3 -17 -14 -9 -12 10 -7 19 13 28 1 0 1 -9 1 -19z
m41 4 c0 -8 -4 -12 -9 -9 -5 3 -6 10 -3 15 9 13 12 11 12 -6z m40 2 c-3 -9 2
-13 16 -11 12 1 32 3 45 3 16 1 21 5 16 14 -5 8 -3 8 9 -2 9 -7 14 -17 11 -22
-3 -5 1 -6 8 -4 9 4 14 -2 15 -15 1 -12 -4 -20 -13 -20 -8 0 -12 5 -9 10 3 6
1 10 -5 10 -19 0 -5 -25 16 -28 10 -2 24 -10 30 -18 10 -12 13 -12 24 1 11 13
10 14 -4 9 -9 -3 -16 -2 -16 4 0 12 24 10 27 -2 1 -5 14 -17 30 -27 15 -10 22
-19 14 -19 -8 0 -11 -7 -8 -20 3 -11 0 -18 -6 -17 -6 1 -12 -7 -14 -18 -3 -16
-2 -17 6 -5 10 13 11 13 11 0 1 -13 2 -13 13 1 7 9 18 14 26 11 8 -2 11 0 8 5
-3 5 3 10 15 10 14 1 18 -3 14 -13 -3 -9 -6 -23 -6 -31 0 -14 -2 -14 -19 1
-16 15 -19 15 -31 1 -7 -8 -10 -16 -6 -16 3 -1 11 -3 16 -4 6 -1 14 -3 18 -4
20 -3 7 -31 -14 -31 -12 0 -24 7 -28 15 -3 8 -10 15 -17 15 -19 0 -61 38 -49
45 5 3 10 1 10 -5 0 -6 5 -8 10 -5 8 5 8 11 0 20 -12 15 3 30 20 20 6 -3 10
-4 10 -1 0 2 -13 11 -30 20 -29 14 -35 10 -31 -16 0 -5 -4 -8 -10 -8 -5 0 -8
-4 -4 -9 3 -5 1 -12 -4 -15 -5 -4 -13 -1 -17 5 -5 8 -3 9 7 4 8 -5 10 -4 6 0
-12 13 -36 15 -44 3 -3 -6 -1 -8 5 -4 6 3 13 2 16 -3 4 -5 2 -12 -3 -16 -6 -3
-8 -11 -5 -18 2 -7 -4 -17 -15 -24 -16 -10 -20 -9 -25 2 -3 8 -1 15 4 15 6 0
10 9 10 20 0 11 -7 20 -16 20 -8 0 -12 5 -9 10 3 6 0 10 -8 10 -17 0 -30 -37
-16 -46 5 -3 14 -14 20 -26 8 -15 8 -19 0 -14 -6 4 -11 2 -11 -4 0 -8 -5 -7
-13 2 -17 17 -32 72 -17 63 5 -3 10 -2 10 4 0 5 -5 11 -12 13 -6 2 1 16 17 32
15 15 25 21 22 12 -5 -12 0 -16 19 -16 19 0 25 4 21 14 -3 8 -2 17 4 20 5 2 4
3 -3 2 -7 -2 -12 -10 -10 -17 2 -9 -3 -8 -16 4 -10 9 -24 17 -30 17 -7 0 -12
4 -12 9 0 5 16 8 35 6 19 -2 34 0 34 3 -1 4 0 9 1 12 10 26 6 40 -11 40 -11 0
-19 -6 -18 -12 3 -25 -1 -38 -12 -38 -7 0 -9 10 -7 25 4 20 3 23 -8 14 -16
-13 -16 -13 -19 19 -1 12 2 22 7 22 6 0 8 -6 5 -13z m393 9 c0 -3 -4 -8 -10
-11 -5 -3 -10 -1 -10 4 0 6 5 11 10 11 6 0 10 -2 10 -4z m38 -52 c-2 -1 -14
-4 -28 -6 -14 -1 -28 -7 -32 -13 -4 -5 -10 -6 -14 -2 -9 9 0 18 22 21 10 2 20
8 22 14 2 8 -3 10 -15 6 -15 -5 -15 -4 -3 5 11 7 19 6 32 -6 10 -9 17 -17 16
-19z m-173 15 c11 -16 1 -19 -13 -3 -7 8 -8 14 -3 14 5 0 13 -5 16 -11z m-292
-22 c-3 -13 2 -29 11 -36 8 -7 12 -19 9 -27 -4 -12 -8 -12 -19 3 -7 10 -14 25
-14 34 0 9 -7 16 -16 15 -9 0 -19 5 -22 13 -3 8 0 11 7 7 6 -4 19 -2 28 3 10
6 19 11 19 11 1 0 -1 -10 -3 -23z m197 17 c0 -8 -19 -13 -24 -6 -3 5 1 9 9 9
8 0 15 -2 15 -3z m84 -43 c-2 -2 -10 1 -18 8 -8 6 -18 11 -22 10 -21 -4 -26 2
-14 17 12 13 16 13 35 -8 12 -13 21 -25 19 -27z m73 43 c-3 -3 -12 -4 -19 -1
-8 3 -5 6 6 6 11 1 17 -2 13 -5z m39 -65 c-14 -11 -34 -18 -44 -16 -12 3 -11
5 6 6 13 0 21 5 18 10 -6 10 9 19 33 20 7 1 2 -8 -13 -20z m-91 -9 c-3 -5 -13
-6 -21 -3 -12 4 -13 8 -3 14 15 9 32 2 24 -11z m165 5 c0 -2 -7 -5 -15 -9 -9
-3 -15 0 -15 9 0 9 6 12 15 9 8 -4 15 -7 15 -9z m-480 -16 c0 -5 -4 -9 -10 -9
-5 0 -10 7 -10 16 0 8 5 12 10 9 6 -3 10 -10 10 -16z m404 -14 c-14 -11 -15
-14 -3 -9 10 3 20 1 23 -4 3 -5 -5 -12 -19 -14 -14 -3 -25 -1 -25 4 0 5 -4 7
-9 3 -5 -3 -13 0 -17 6 -4 7 -3 9 3 6 6 -4 19 0 29 8 10 8 23 15 28 15 6 0 1
-7 -10 -15z m126 -17 c0 -18 -2 -20 -9 -8 -6 8 -7 18 -5 22 9 14 14 9 14 -14z
m-787 -72 c4 -27 11 -53 18 -56 8 -6 8 -9 -1 -15 -7 -4 -9 -19 -5 -38 5 -24 4
-28 -4 -17 -6 8 -11 24 -11 35 0 16 -2 17 -10 5 -6 -9 -6 -18 0 -24 6 -6 10
-15 10 -20 0 -6 -7 -2 -15 8 -8 10 -12 22 -10 26 11 18 15 149 5 155 -5 3 -10
11 -10 18 0 31 28 -34 33 -77z m754 77 c-4 -3 3 -17 15 -30 12 -12 19 -25 16
-28 -8 -9 -38 6 -32 16 3 5 -2 6 -11 2 -9 -3 -13 -9 -8 -12 4 -3 9 -14 11 -25
3 -13 -1 -17 -12 -13 -9 4 -15 1 -13 -6 1 -7 -10 -12 -28 -13 -62 -2 -78 -4
-71 -11 7 -8 11 -9 39 -12 9 -1 9 -3 -1 -9 -20 -13 18 -41 43 -32 19 7 19 7
-3 19 -31 16 -28 37 6 36 15 0 29 -3 32 -7 3 -4 12 -3 20 2 11 7 11 10 2 10
-9 0 -10 5 -2 19 7 13 7 21 0 24 -6 3 -5 4 2 3 15 -3 20 -66 5 -66 -7 0 -1 -9
13 -20 17 -13 20 -20 10 -20 -13 0 -13 -1 0 -10 12 -8 10 -10 -10 -10 -19 0
-22 -2 -10 -9 8 -6 17 -8 20 -6 3 2 6 -7 5 -21 0 -28 -25 -50 -37 -32 -3 7 -3
20 3 29 6 12 4 19 -6 23 -9 3 -15 19 -16 38 0 29 -1 30 -9 12 -5 -12 -14 -25
-20 -29 -9 -6 -9 -10 1 -16 10 -6 4 -9 -18 -9 -26 0 -31 3 -26 16 5 14 3 15
-18 4 -22 -12 -23 -12 -10 3 10 13 10 17 1 17 -7 0 -10 6 -7 14 3 8 -1 20 -9
26 -17 15 -19 44 -1 35 6 -4 5 -1 -3 7 -8 7 -15 22 -16 33 0 18 6 21 38 20
l39 0 -26 -22 c-20 -18 -22 -23 -9 -23 9 0 23 8 30 17 7 10 16 14 20 10 5 -4
2 -12 -6 -17 -8 -5 -11 -12 -8 -16 9 -8 42 24 44 44 2 8 9 19 16 23 7 5 9 9 5
9 -9 0 1 20 10 20 4 0 3 -3 0 -7z m-37 -22 c0 -5 -7 -11 -14 -14 -10 -4 -13
-1 -9 9 6 15 23 19 23 5z m-750 -41 c0 -5 -2 -10 -4 -10 -3 0 -8 5 -11 10 -3
6 -1 10 4 10 6 0 11 -4 11 -10z m77 -12 c-3 -8 -6 -5 -6 6 -1 11 2 17 5 13 3
-3 4 -12 1 -19z m85 -20 c-8 -8 -9 -4 -5 13 4 13 8 18 11 10 2 -7 -1 -18 -6
-23z m35 -20 c0 -13 -1 -18 -4 -11 -2 7 -12 10 -21 7 -14 -5 -13 -2 2 10 11 9
20 16 21 16 0 0 1 -10 2 -22z m647 1 c-8 -14 -24 -10 -24 6 0 9 6 12 15 9 8
-4 12 -10 9 -15z m-476 -44 c-1 -19 -5 -32 -9 -30 -4 3 -9 2 -12 -2 -2 -5 -2
-3 -1 4 2 6 -2 13 -7 15 -7 2 -6 13 2 30 15 35 29 27 27 -17z m484 13 c-7 -7
-12 -8 -12 -2 0 14 12 26 19 19 2 -3 -1 -11 -7 -17z m-656 -11 c-1 -7 -7 -21
-13 -32 -5 -11 -9 -30 -8 -42 1 -13 -2 -23 -7 -23 -4 0 -8 6 -8 13 0 7 -7 4
-15 -7 -15 -20 -15 -20 -15 0 0 11 -6 26 -12 34 -11 12 -10 12 5 1 15 -12 17
-11 17 13 0 14 5 26 10 26 6 0 10 -5 10 -11 0 -5 5 -7 11 -3 8 4 8 9 0 17 -18
18 -13 36 8 30 10 -3 18 -10 17 -16z m-194 -49 c6 -13 5 -18 -4 -18 -8 0 -14
14 -15 33 0 17 1 25 4 17 3 -8 10 -23 15 -32z m-164 -8 c42 0 93 -43 75 -61
-14 -14 -53 -2 -53 16 0 16 -18 23 -43 17 -14 -4 -15 -7 -5 -20 12 -14 11 -14
-9 -1 -13 8 -23 17 -23 21 0 5 -4 8 -10 8 -5 0 -10 -6 -10 -14 0 -27 -24 -35
-47 -16 -12 9 -19 20 -16 24 4 3 -1 6 -11 6 -9 0 -14 -4 -11 -10 3 -5 -1 -10
-10 -10 -10 0 -15 7 -13 18 3 13 15 18 63 20 33 2 64 8 70 13 6 6 11 6 13 -1
2 -5 20 -10 40 -10z m382 -15 c5 3 10 1 10 -4 0 -16 -45 -6 -46 10 -1 26 9 32
18 10 4 -12 12 -19 18 -16z m-193 -21 c-3 -3 -12 -4 -19 -1 -8 3 -5 6 6 6 11
1 17 -2 13 -5z m846 -9 c-3 -9 -8 -14 -10 -11 -3 3 -2 9 2 15 9 16 15 13 8 -4z
m-750 -9 c4 -10 1 -13 -8 -10 -8 4 -15 -3 -18 -18 -4 -21 -4 -21 -6 4 0 14 5
29 12 31 6 3 13 6 13 6 1 1 4 -6 7 -13z m797 -11 c14 -19 14 -19 -2 -6 -10 7
-18 18 -18 24 0 6 1 8 3 6 1 -2 9 -13 17 -24z m-739 -50 c10 -9 -2 -46 -12
-39 -5 3 -9 0 -9 -7 0 -9 -3 -9 -14 0 -11 9 -13 2 -11 -46 2 -38 0 -51 -5 -38
-16 38 -11 91 9 109 11 10 19 26 18 37 -1 20 -17 27 -17 7 0 -6 -3 -9 -6 -6
-3 3 1 16 8 27 13 21 13 21 23 -8 5 -16 13 -32 16 -36z m322 43 c-6 -7 -13
-22 -15 -33 -3 -14 -6 -11 -9 13 -4 25 -2 32 8 28 7 -3 13 0 13 6 0 6 3 8 6 5
4 -4 2 -12 -3 -19z m-513 -23 c0 -5 -5 -3 -10 5 -5 8 -10 20 -10 25 0 6 5 3
10 -5 5 -8 10 -19 10 -25z m90 0 c0 -19 -4 -35 -8 -35 -4 0 -6 16 -4 35 2 19
6 35 8 35 2 0 4 -16 4 -35z m477 -9 c-4 -9 -11 -16 -17 -16 -15 0 -24 26 -16
47 6 15 8 15 23 1 9 -9 13 -24 10 -32z m-352 24 c-8 -14 4 -52 15 -45 5 3 12
0 16 -6 4 -8 3 -9 -4 -5 -8 5 -12 -2 -12 -21 0 -15 -4 -35 -10 -43 -7 -12 -10
-12 -16 4 -4 10 -2 28 5 38 10 16 10 19 0 12 -9 -5 -10 -2 -5 11 4 10 2 21 -4
25 -12 8 -3 40 12 40 5 0 6 -5 3 -10z m665 2 c0 -5 -7 -9 -15 -9 -8 0 -12 4
-9 9 3 4 9 8 15 8 5 0 9 -4 9 -8z m-822 -39 c-3 -15 -6 -15 -17 6 -8 14 -9 21
-2 17 6 -4 11 -1 12 6 0 10 2 10 6 1 2 -7 3 -21 1 -30z m-28 -12 c0 -21 -13
-4 -17 22 -2 17 -1 19 7 7 5 -8 10 -21 10 -29z m-196 7 c-2 -3 -13 -6 -24 -5
-24 2 -18 13 9 13 11 0 18 -4 15 -8z m321 2 c-3 -5 -11 -10 -16 -10 -6 0 -7 5
-4 10 3 6 11 10 16 10 6 0 7 -4 4 -10z m306 -8 c13 -15 13 -20 2 -30 -10 -10
-13 -9 -13 6 0 10 -5 23 -12 30 -7 7 -8 12 -2 12 5 0 17 -8 25 -18z m493 -8
c3 -8 2 -12 -4 -9 -6 3 -10 10 -10 16 0 14 7 11 14 -7z m-396 -28 c-2 -12 -7
-13 -18 -5 -11 8 -12 12 -2 16 6 2 9 10 6 16 -5 9 -4 9 5 1 7 -7 11 -19 9 -28z
m-161 -23 c-3 -10 -5 -4 -5 12 0 17 2 24 5 18 2 -7 2 -21 0 -30z m-967 13 c0
-2 -8 -10 -17 -17 -16 -13 -17 -12 -4 4 13 16 21 21 21 13z m1435 -26 c3 -5 1
-10 -4 -10 -6 0 -11 5 -11 10 0 6 2 10 4 10 3 0 8 -4 11 -10z m-620 -19 c3 -5
1 -12 -5 -16 -5 -3 -10 1 -10 9 0 18 6 21 15 7z m219 -33 c-6 -9 -34 1 -34 12
0 5 6 10 13 13 13 4 28 -13 21 -25z m-247 -18 c-1 -11 -5 -20 -9 -20 -10 0
-10 4 -2 24 8 22 13 20 11 -4z m150 -27 c1 -42 0 -44 -7 -18 -11 42 -11 65 -2
65 5 0 9 -21 9 -47z m133 17 c0 -11 -4 -20 -9 -20 -5 0 -7 9 -4 20 3 11 7 20
9 20 2 0 4 -9 4 -20z m-67 -55 c-3 -9 -8 -14 -10 -11 -3 3 -2 9 2 15 9 16 15
13 8 -4z m531 -71 l6 -49 -19 60 c-10 33 -16 64 -13 69 8 13 19 -23 26 -80z
m-1194 31 c0 -8 -4 -15 -10 -15 -5 0 -7 7 -4 15 4 8 8 15 10 15 2 0 4 -7 4
-15z m54 -107 c-5 -8 -2 -9 10 -5 10 4 15 3 11 -4 -4 -5 -15 -7 -25 -4 -13 4
-17 1 -16 -12 0 -10 6 -22 11 -26 6 -5 4 -7 -4 -5 -20 6 -21 47 -2 58 21 12
24 12 15 -2z m21 -53 c-4 -37 -12 -40 -13 -5 0 16 3 30 8 30 4 0 7 -11 5 -25z
m-566 -61 c-4 -12 -5 -25 -1 -30 4 -4 2 -4 -5 -1 -6 4 -10 15 -8 25 2 9 4 28
5 42 1 23 2 23 9 5 5 -11 5 -30 0 -41z m304 15 c4 -16 3 -18 -9 -8 -16 13 -19
29 -5 29 5 0 11 -9 14 -21z m91 -34 c-4 -8 -7 -15 -9 -15 -2 0 -5 7 -9 15 -3
9 0 15 9 15 9 0 12 -6 9 -15z m-377 -55 c7 -10 10 -27 6 -36 -5 -13 -3 -16 10
-11 9 3 17 2 17 -4 0 -6 5 -7 10 -4 11 7 14 -18 3 -29 -4 -4 -8 -13 -9 -19 0
-7 -2 -19 -2 -28 -1 -9 -10 -16 -19 -15 -12 0 -19 -7 -21 -21 -2 -13 -8 -23
-13 -23 -6 0 -7 9 -4 20 6 18 -3 25 -28 21 -4 -1 -1 14 7 33 11 26 11 37 3 46
-9 10 -9 14 1 17 10 4 8 9 -5 20 -10 8 -13 12 -7 9 11 -6 29 20 26 37 -4 15
14 7 25 -13z m73 -19 c0 -5 -7 -12 -16 -15 -14 -5 -15 -4 -4 9 14 17 20 19 20
6z m745 -51 c3 -5 1 -10 -4 -10 -6 0 -11 5 -11 10 0 6 2 10 4 10 3 0 8 -4 11
-10z m45 -110 c0 -5 -2 -10 -4 -10 -3 0 -8 5 -11 10 -3 6 -1 10 4 10 6 0 11
-4 11 -10z m-885 -30 c-3 -5 -3 -10 2 -10 4 0 13 -11 19 -23 8 -18 8 -24 -3
-24 -7 0 -13 9 -13 20 0 11 -9 21 -21 24 -16 4 -17 8 -7 14 18 12 31 11 23 -1z
m75 -82 c-13 -5 -25 -6 -28 -3 -3 3 -1 5 5 5 6 0 14 7 17 16 4 11 2 15 -7 11
-8 -3 -13 3 -14 17 -2 19 0 18 24 -8 l25 -30 -22 -8z m60 38 c0 -3 -4 -8 -10
-11 -5 -3 -10 -1 -10 4 0 6 5 11 10 11 6 0 10 -2 10 -4z m-144 -27 c0 -13 -3
-15 -13 -7 -7 6 -13 14 -13 18 0 3 6 7 13 7 7 0 13 -8 13 -18z m179 -117 c-3
-3 -11 0 -18 7 -9 10 -8 11 6 5 10 -3 15 -9 12 -12z m-15 -72 c0 -5 -2 -10 -4
-10 -3 0 -8 5 -11 10 -3 6 -1 10 4 10 6 0 11 -4 11 -10z m87 -62 c2 -18 0 -20
-7 -8 -12 18 -13 30 -2 30 4 0 9 -10 9 -22z m-77 -43 c-9 -10 -17 -12 -30 -5
-9 5 -21 6 -26 2 -5 -4 -2 1 5 11 10 13 17 15 27 6 11 -9 15 -7 21 7 4 11 8
13 11 6 2 -7 -2 -19 -8 -27z m73 -62 c-5 -12 -3 -14 7 -8 9 6 11 4 5 -4 -5 -9
-11 -9 -17 -3 -6 6 -7 15 -4 21 11 17 16 13 9 -6z m-77 -31 c-7 -7 -46 9 -46
18 0 5 11 4 25 -2 14 -6 23 -13 21 -16z m84 -36 c0 -3 -4 -8 -10 -11 -5 -3
-10 -1 -10 4 0 6 5 11 10 11 6 0 10 -2 10 -4z m-13 -48 c-3 -8 -6 -5 -6 6 -1
11 2 17 5 13 3 -3 4 -12 1 -19z m-207 -98 c0 -5 -2 -10 -4 -10 -3 0 -8 5 -11
10 -3 6 -1 10 4 10 6 0 11 -4 11 -10z m-32 -45 c-3 -3 -9 2 -12 12 -6 14 -5
15 5 6 7 -7 10 -15 7 -18z m52 -5 c0 -11 -4 -20 -9 -20 -5 0 -7 9 -4 20 3 11
7 20 9 20 2 0 4 -9 4 -20z m84 -46 c3 -8 2 -12 -4 -9 -6 3 -10 10 -10 16 0 14
7 11 14 -7z m-37 -66 c-3 -8 -6 -5 -6 6 -1 11 2 17 5 13 3 -3 4 -12 1 -19z
m52 -15 c0 -11 -3 -13 -6 -5 -2 6 -10 9 -15 6 -7 -4 -8 -2 -4 4 11 18 26 14
25 -5z m298 -65 c-3 -8 -6 -5 -6 6 -1 11 2 17 5 13 3 -3 4 -12 1 -19z m120
-144 c-3 -3 -12 -4 -19 -1 -8 3 -5 6 6 6 11 1 17 -2 13 -5z"/>
<path d="M1470 3076 c0 -2 7 -6 15 -10 8 -3 15 -1 15 4 0 6 -7 10 -15 10 -8 0
-15 -2 -15 -4z"/>
<path d="M1545 3070 c3 -5 11 -10 16 -10 6 0 7 5 4 10 -3 6 -11 10 -16 10 -6
0 -7 -4 -4 -10z"/>
<path d="M1635 3009 c-4 -6 -5 -12 -2 -15 2 -3 7 2 10 11 7 17 1 20 -8 4z"/>
<path d="M1698 2973 c7 -3 16 -2 19 1 4 3 -2 6 -13 5 -11 0 -14 -3 -6 -6z"/>
<path d="M1241 2644 c0 -11 3 -14 6 -6 3 7 2 16 -1 19 -3 4 -6 -2 -5 -13z"/>
<path d="M2105 3178 c-3 -13 -2 -138 3 -278 7 -235 10 -259 31 -302 15 -31 30
-101 46 -215 14 -92 25 -174 25 -180 0 -7 5 -13 10 -13 6 0 10 13 10 29 0 17
5 33 10 36 6 3 10 1 10 -4 0 -6 7 -11 15 -11 27 0 89 -37 124 -74 23 -24 44
-36 62 -36 14 0 31 -6 37 -12 6 -7 21 -91 33 -185 26 -198 41 -213 47 -48 l4
105 27 0 c31 0 74 -27 66 -41 -4 -5 -1 -9 6 -9 14 0 69 -55 69 -70 0 -5 5 -10
10 -10 6 0 10 -7 10 -16 0 -8 4 -12 10 -9 6 4 10 -13 10 -45 0 -34 -4 -49 -11
-45 -6 4 -16 0 -22 -8 -17 -21 -68 -35 -97 -26 -24 7 -24 7 5 6 46 -1 75 11
68 30 -5 12 -17 14 -65 10 -32 -3 -70 -12 -83 -21 -13 -9 -37 -16 -52 -16 -22
0 -25 2 -13 10 13 9 13 10 0 11 -8 1 -18 1 -22 1 -3 -1 -9 5 -12 14 -4 10 -2
13 6 8 7 -5 9 0 6 14 -3 12 -1 23 6 26 6 3 -4 4 -22 1 -40 -4 -47 -9 -36 -27
13 -21 15 -48 3 -48 -5 0 -7 -5 -3 -12 5 -8 2 -9 -9 -5 -9 3 -19 2 -22 -4 -4
-5 -3 -9 2 -8 24 4 34 -4 13 -10 -16 -4 -25 -14 -26 -29 -1 -12 2 -19 7 -16 4
2 6 11 2 19 -3 10 1 15 12 15 11 0 15 -5 11 -15 -3 -8 -1 -15 3 -15 5 0 8 -8
7 -17 -2 -10 12 -32 31 -49 18 -17 33 -37 33 -43 0 -7 4 -10 9 -7 9 6 26 -22
23 -36 -1 -4 5 -5 13 -2 9 4 21 1 29 -5 11 -9 15 -8 20 6 6 15 8 15 16 3 8
-12 10 -11 11 5 l0 20 9 -20 c5 -11 9 -16 9 -12 1 4 10 -1 21 -11 13 -12 24
-41 30 -75 5 -31 13 -65 19 -75 17 -31 20 -114 6 -142 -25 -48 -58 -67 -121
-69 -14 -1 -24 -9 -28 -25 -3 -14 -23 -45 -44 -69 -20 -24 -43 -53 -51 -64 -7
-11 -37 -30 -67 -43 -76 -34 -82 -63 -22 -100 30 -18 31 -18 55 6 13 13 21 29
18 34 -3 6 -1 10 4 10 10 0 15 -14 12 -32 -2 -12 37 -9 44 2 10 16 59 7 79
-13 10 -9 21 -17 26 -17 13 0 24 -41 21 -80 -2 -25 4 -41 17 -53 16 -15 18
-22 8 -42 -6 -14 -14 -25 -18 -25 -5 0 -8 -9 -8 -20 0 -11 7 -20 16 -20 8 0
12 5 9 10 -3 6 -1 10 4 10 6 0 11 -12 11 -26 0 -14 4 -23 9 -19 18 11 24 -18
7 -31 -13 -9 -16 -19 -11 -35 5 -14 4 -19 -4 -15 -6 4 -11 20 -11 36 0 28 -25
49 -34 27 -2 -7 -5 -4 -5 6 -2 33 -21 17 -21 -18 0 -35 -7 -43 -25 -27 -6 5
-22 -4 -38 -20 -15 -15 -23 -28 -16 -28 6 0 9 -6 6 -14 -3 -7 0 -19 6 -25 6
-6 8 -11 4 -11 -4 0 2 -9 13 -20 11 -11 24 -20 29 -20 5 0 15 -13 22 -29 8
-17 16 -25 20 -20 8 13 49 -28 49 -50 0 -8 3 -12 6 -8 4 3 13 0 20 -8 16 -16
19 -29 4 -20 -5 3 -10 -1 -10 -9 0 -9 -7 -16 -15 -17 -48 -4 -60 -1 -57 10 1
7 -2 10 -8 6 -6 -3 -8 -10 -5 -15 8 -12 -26 -22 -40 -10 -6 5 -15 7 -18 3 -4
-3 -7 -1 -7 5 0 6 -7 9 -17 5 -12 -5 -14 -3 -8 7 9 15 -9 6 -38 -19 -16 -13
-19 -13 -28 -1 -8 13 -10 13 -19 0 -9 -13 -10 -13 -11 0 -1 28 -9 64 -15 69
-4 3 -4 -14 -2 -37 4 -43 3 -43 -13 -23 -17 21 -35 30 -24 11 3 -5 2 -10 -2
-10 -5 0 -14 9 -21 21 -11 16 -16 18 -28 9 -8 -7 -14 -19 -14 -28 0 -30 -41
-81 -83 -101 -25 -13 -43 -17 -45 -11 -4 11 -42 -27 -42 -41 0 -5 -12 -15 -27
-23 -25 -14 30 -15 530 -16 l557 0 0 1600 0 1600 -545 0 -545 0 -5 -22z m428
-92 c69 -29 120 -125 100 -188 l-11 -33 -1 34 c-2 83 -85 161 -171 161 -47 0
-112 -30 -134 -62 -12 -17 -16 -19 -16 -6 0 24 44 73 82 91 41 20 108 22 151
3z m77 -1361 c11 -13 10 -14 -4 -9 -9 3 -16 10 -16 15 0 13 6 11 20 -6z m-140
-65 c0 -5 -5 -10 -11 -10 -5 0 -7 5 -4 10 3 6 8 10 11 10 2 0 4 -4 4 -10z
m-137 -1457 c-5 -12 -3 -14 7 -8 9 6 11 4 5 -4 -5 -9 -11 -9 -17 -3 -6 6 -7
15 -4 21 11 17 16 13 9 -6z"/>
<path d="M1303 2875 c0 -8 4 -12 9 -9 4 3 8 9 8 15 0 5 -4 9 -8 9 -5 0 -9 -7
-9 -15z"/>
<path d="M1610 2869 c0 -5 5 -7 10 -4 6 3 10 8 10 11 0 2 -4 4 -10 4 -5 0 -10
-5 -10 -11z"/>
<path d="M1577 2818 c4 -7 8 -17 8 -23 0 -5 7 -10 15 -10 8 0 21 -7 28 -15 12
-13 13 -13 6 0 -10 22 -46 60 -56 60 -5 0 -6 -6 -1 -12z"/>
<path d="M1700 2784 c0 -16 18 -18 38 -5 10 6 7 10 -12 13 -18 4 -26 1 -26 -8z"/>
<path d="M1400 2770 c-7 -14 -7 -20 0 -20 5 0 10 -9 10 -20 0 -13 6 -20 18
-19 10 0 12 3 5 6 -7 2 -13 9 -13 14 0 6 5 7 10 4 6 -3 10 1 10 10 0 11 -5 15
-15 11 -9 -3 -15 0 -15 8 0 8 6 17 13 19 9 4 9 6 0 6 -7 1 -17 -8 -23 -19z"/>
<path d="M1343 2745 c0 -8 4 -12 9 -9 5 3 6 10 3 15 -9 13 -12 11 -12 -6z"/>
<path d="M1727 2739 c7 -7 15 -10 18 -7 3 3 -2 9 -12 12 -14 6 -15 5 -6 -5z"/>
<path d="M1743 2685 c2 -42 8 -44 24 -8 10 21 10 28 0 35 -21 14 -26 9 -24
-27z"/>
<path d="M1700 2679 c0 -5 5 -7 10 -4 6 3 10 8 10 11 0 2 -4 4 -10 4 -5 0 -10
-5 -10 -11z"/>
<path d="M1805 2680 c-3 -5 -2 -10 4 -10 5 0 13 5 16 10 3 6 2 10 -4 10 -5 0
-13 -4 -16 -10z"/>
<path d="M1780 2650 c-8 -5 -10 -10 -5 -10 6 0 17 5 25 10 8 5 11 10 5 10 -5
0 -17 -5 -25 -10z"/>
<path d="M1824 2632 c-14 -9 -3 -46 15 -50 11 -2 12 0 3 11 -7 8 -10 22 -6 31
7 18 4 19 -12 8z"/>
<path d="M1757 2599 c7 -7 15 -10 18 -7 3 3 -2 9 -12 12 -14 6 -15 5 -6 -5z"/>
<path d="M1594 2576 c-7 -18 38 -63 57 -57 12 4 12 2 0 -12 -7 -10 -9 -17 -3
-17 6 0 12 6 15 13 7 20 -4 37 -23 37 -10 0 -23 7 -31 16 -10 13 -10 17 2 25
10 6 11 9 1 9 -7 0 -15 -6 -18 -14z"/>
<path d="M1820 2554 c0 -8 5 -12 10 -9 6 3 10 10 10 16 0 5 -4 9 -10 9 -5 0
-10 -7 -10 -16z"/>
<path d="M1905 2530 c-3 -5 -1 -10 4 -10 6 0 11 5 11 10 0 6 -2 10 -4 10 -3 0
-8 -4 -11 -10z"/>
<path d="M1325 2503 c6 -24 5 -25 -12 -12 -16 13 -17 12 -4 -3 7 -10 17 -15
22 -12 5 3 9 -3 9 -12 0 -14 3 -15 12 -6 9 9 9 15 0 24 -7 7 -12 20 -12 30 0
10 -5 18 -11 18 -7 0 -9 -10 -4 -27z"/>
<path d="M1736 2517 c3 -10 9 -15 12 -12 3 3 0 11 -7 18 -10 9 -11 8 -5 -6z"/>
<path d="M1823 2515 c0 -8 4 -12 9 -9 5 3 6 10 3 15 -9 13 -12 11 -12 -6z"/>
<path d="M1694 2500 c0 -10 6 -16 13 -13 7 3 13 9 13 13 0 4 -6 10 -13 13 -7
3 -13 -3 -13 -13z"/>
<path d="M1871 2489 c-7 -17 -10 -33 -6 -37 4 -4 10 -1 13 7 4 11 6 11 13 0 6
-9 7 -1 4 21 -8 44 -8 44 -24 9z"/>
<path d="M1700 2460 c0 -5 5 -10 11 -10 5 0 7 5 4 10 -3 6 -8 10 -11 10 -2 0
-4 -4 -4 -10z"/>
<path d="M1740 2443 c0 -5 5 -15 10 -23 7 -12 9 -10 7 8 -1 19 -17 33 -17 15z"/>
<path d="M1817 2427 c-3 -8 1 -14 9 -14 16 0 19 13 5 21 -5 3 -11 0 -14 -7z"/>
<path d="M1675 2420 c3 -5 8 -10 11 -10 2 0 4 5 4 10 0 6 -5 10 -11 10 -5 0
-7 -4 -4 -10z"/>
<path d="M1863 2422 c-8 -5 -9 -13 -3 -22 7 -12 10 -12 16 3 8 21 3 29 -13 19z"/>
<path d="M1370 2411 c0 -6 4 -13 10 -16 6 -3 7 1 4 9 -7 18 -14 21 -14 7z"/>
<path d="M1891 2373 c-1 -17 -6 -21 -22 -18 -17 4 -19 2 -9 -11 10 -11 16 -12
26 -3 10 8 14 8 14 0 0 -6 5 -11 11 -11 8 0 8 4 1 13 -5 6 -12 21 -15 32 -4
19 -5 18 -6 -2z"/>
<path d="M2088 2376 c-10 -7 -18 -19 -18 -27 1 -11 3 -11 13 2 7 8 21 21 32
27 14 8 15 11 5 11 -8 0 -23 -6 -32 -13z"/>
<path d="M2118 2353 c6 -2 18 -2 25 0 6 3 1 5 -13 5 -14 0 -19 -2 -12 -5z"/>
<path d="M1505 2339 c-4 -6 -5 -12 -2 -15 2 -3 7 2 10 11 7 17 1 20 -8 4z"/>
<path d="M1471 2314 c0 -11 3 -14 6 -6 3 7 2 16 -1 19 -3 4 -6 -2 -5 -13z"/>
<path d="M1547 2301 c4 -14 1 -26 -8 -32 -11 -7 -11 -9 2 -9 23 0 30 24 14 47
-13 17 -14 16 -8 -6z"/>
<path d="M2145 2310 c3 -5 8 -10 11 -10 2 0 4 5 4 10 0 6 -5 10 -11 10 -5 0
-7 -4 -4 -10z"/>
<path d="M1490 2299 c0 -5 5 -7 10 -4 6 3 10 8 10 11 0 2 -4 4 -10 4 -5 0 -10
-5 -10 -11z"/>
<path d="M1570 2305 c0 -2 6 -8 13 -14 10 -8 14 -7 14 2 0 8 -6 14 -14 14 -7
0 -13 -1 -13 -2z"/>
<path d="M1625 2300 c-16 -7 -17 -9 -3 -9 9 -1 20 4 23 9 7 11 7 11 -20 0z"/>
<path d="M1676 2298 c3 -5 10 -6 15 -3 13 9 11 12 -6 12 -8 0 -12 -4 -9 -9z"/>
<path d="M1715 2290 c3 -5 8 -10 11 -10 2 0 4 5 4 10 0 6 -5 10 -11 10 -5 0
-7 -4 -4 -10z"/>
<path d="M1828 2283 c-38 -19 -36 -35 2 -17 17 9 30 20 30 25 0 5 -1 9 -2 8
-2 -1 -15 -8 -30 -16z"/>
<path d="M2070 2287 c0 -8 -6 -20 -14 -26 -11 -9 -15 -8 -20 4 -3 9 -10 14
-15 10 -16 -9 -1 -32 20 -31 11 1 24 8 29 16 8 12 10 12 10 -5 1 -18 1 -19 11
-2 8 13 6 21 -5 33 -14 13 -16 13 -16 1z"/>
<path d="M2120 2276 c0 -8 8 -13 18 -11 9 2 22 4 27 4 14 2 -17 21 -32 21 -7
0 -13 -6 -13 -14z"/>
<path d="M1501 2264 c0 -11 3 -14 6 -6 3 7 2 16 -1 19 -3 4 -6 -2 -5 -13z"/>
<path d="M1935 2260 c3 -5 8 -10 11 -10 2 0 4 5 4 10 0 6 -5 10 -11 10 -5 0
-7 -4 -4 -10z"/>
<path d="M1631 2234 c0 -11 3 -14 6 -6 3 7 2 16 -1 19 -3 4 -6 -2 -5 -13z"/>
<path d="M2087 2186 c-9 -23 -63 -46 -77 -32 -9 8 -11 5 -5 -14 10 -33 14 -37
24 -21 7 11 10 11 14 0 4 -10 6 -8 6 4 1 10 5 16 10 12 5 -3 21 5 35 19 22 19
24 25 12 35 -10 9 -15 8 -19 -3z"/>
<path d="M2140 2149 c0 -5 -4 -8 -10 -4 -5 3 -7 -6 -5 -22 2 -15 7 -45 10 -67
3 -22 0 -44 -6 -52 -9 -11 -8 -14 5 -14 11 0 14 5 10 12 -5 8 -2 9 9 5 15 -6
22 3 18 25 0 4 6 5 14 2 18 -7 16 29 -3 48 -7 7 -12 18 -12 25 0 7 -7 13 -15
13 -8 0 -15 5 -15 10 0 6 7 10 15 10 8 0 15 5 15 10 0 6 -7 10 -15 10 -8 0
-15 -5 -15 -11z"/>
<path d="M1736 2128 c3 -5 10 -6 15 -3 13 9 11 12 -6 12 -8 0 -12 -4 -9 -9z"/>
<path d="M1671 2024 c-8 -19 -8 -24 4 -24 9 0 12 6 9 15 -5 11 -2 13 10 9 9
-3 16 -11 16 -17 0 -6 3 -7 7 -4 3 4 -3 16 -14 26 -20 19 -21 19 -32 -5z"/>
<path d="M2214 1995 c-1 -16 3 -22 15 -21 23 4 27 41 4 43 -12 1 -18 -6 -19
-22z"/>
<path d="M2340 2000 c0 -5 5 -10 10 -10 6 0 10 5 10 10 0 6 -4 10 -10 10 -5 0
-10 -4 -10 -10z"/>
<path d="M1220 1940 c0 -5 5 -10 11 -10 5 0 7 5 4 10 -3 6 -8 10 -11 10 -2 0
-4 -4 -4 -10z"/>
<path d="M2444 1935 c-17 -13 -17 -14 -1 -15 9 0 17 5 17 11 0 5 5 7 12 3 7
-4 8 -3 4 4 -9 15 -8 15 -32 -3z"/>
<path d="M2330 1923 c0 -15 -2 -16 -10 -3 -8 13 -10 13 -10 -2 0 -24 23 -28
36 -6 10 18 11 17 11 -10 0 -29 -10 -34 -34 -19 -9 6 -11 3 -7 -7 3 -9 11 -16
18 -16 6 0 5 -4 -3 -9 -12 -8 -12 -13 3 -35 17 -26 36 -35 36 -15 0 5 -4 7
-10 4 -5 -3 -10 1 -10 9 0 24 17 28 23 5 8 -32 31 -17 38 24 5 30 3 35 -8 25
-11 -9 -12 -7 -7 7 5 13 4 16 -5 10 -10 -6 -11 -3 -2 13 6 11 16 22 23 25 7 2
10 8 5 12 -4 5 -13 1 -20 -9 -12 -16 -14 -16 -26 -2 -18 21 -41 20 -41 -1z"/>
<path d="M1810 1886 c0 -15 -7 -26 -17 -29 -17 -4 -17 -5 0 -6 22 -1 57 16 57
29 0 5 -9 14 -20 20 -17 9 -20 8 -20 -14z"/>
<path d="M2575 1800 c-3 -5 -2 -10 4 -10 5 0 13 5 16 10 3 6 2 10 -4 10 -5 0
-13 -4 -16 -10z"/>
<path d="M1959 1783 c-12 -16 -12 -17 2 -6 9 7 18 10 21 7 3 -3 9 -1 13 5 11
18 -22 12 -36 -6z"/>
<path d="M2368 1783 c-17 -4 -14 -33 4 -33 5 0 7 4 4 9 -4 5 0 11 6 14 18 6 6
14 -14 10z"/>
<path d="M2360 1709 c0 -16 4 -28 9 -25 8 5 3 56 -5 56 -2 0 -4 -14 -4 -31z"/>
<path d="M515 1690 c-3 -6 1 -7 9 -4 18 7 21 14 7 14 -6 0 -13 -4 -16 -10z"/>
<path d="M2344 1406 c0 -14 6 -22 14 -19 17 7 15 43 -2 43 -8 0 -13 -9 -12
-24z"/>
<path d="M2371 1380 c-7 -17 -11 -34 -7 -37 6 -7 28 46 24 59 -2 4 -9 -6 -17
-22z"/>
<path d="M2586 1394 c-4 -9 -4 -19 -1 -22 3 -3 5 -2 5 3 0 4 7 1 17 -6 15 -13
15 -12 3 11 -17 33 -17 33 -24 14z"/>
<path d="M2399 1373 c-13 -16 -12 -17 4 -4 9 7 17 15 17 17 0 8 -8 3 -21 -13z"/>
<path d="M1629 1221 c-97 -127 -140 -188 -157 -223 -7 -14 28 -8 66 11 20 10
53 38 72 61 19 24 40 48 46 54 6 7 14 21 18 33 4 12 25 29 49 39 55 24 59 23
63 -4 7 -41 32 -67 99 -101 91 -47 101 -33 36 53 -28 37 -51 70 -51 74 0 4
-18 24 -40 45 -22 20 -40 43 -40 50 0 8 -10 23 -23 35 l-23 22 -115 -149z"/>
<path d="M2406 1344 c-19 -19 -22 -48 -3 -38 7 4 9 3 4 -2 -5 -5 -14 -9 -19
-9 -6 0 -13 -6 -16 -13 -3 -10 5 -13 29 -10 28 2 34 7 33 26 0 18 3 21 20 16
17 -4 18 -3 6 5 -8 6 -23 8 -34 5 -13 -4 -17 -2 -13 7 2 8 10 13 16 11 7 -1
10 2 6 8 -8 13 -11 13 -29 -6z"/>
<path d="M2610 1340 c0 -5 5 -10 10 -10 6 0 10 5 10 10 0 6 -4 10 -10 10 -5 0
-10 -4 -10 -10z"/>
<path d="M2555 1310 c5 -17 4 -21 -5 -15 -9 5 -11 4 -6 -3 9 -16 23 -15 29 1
2 6 -2 18 -10 26 -13 12 -14 11 -8 -9z"/>
<path d="M2359 1303 c-13 -16 -12 -17 4 -4 9 7 17 15 17 17 0 8 -8 3 -21 -13z"/>
<path d="M844 1282 c3 -5 0 -13 -6 -15 -9 -4 -10 -6 -1 -6 17 -1 25 16 12 25
-7 4 -9 3 -5 -4z"/>
<path d="M870 1186 c0 -2 7 -7 16 -10 8 -3 12 -2 9 4 -6 10 -25 14 -25 6z"/>
<path d="M930 1141 c0 -6 4 -13 10 -16 6 -3 7 1 4 9 -7 18 -14 21 -14 7z"/>
<path d="M872 1118 c2 -6 10 -13 16 -14 7 -1 8 0 2 3 -5 2 -8 9 -4 14 3 5 0 9
-6 9 -7 0 -10 -5 -8 -12z"/>
<path d="M1881 1003 c-11 -4 -8 -10 10 -24 13 -10 18 -19 11 -19 -22 0 11 -28
42 -36 23 -5 26 -4 24 20 -1 16 -8 26 -18 26 -20 1 -52 25 -43 33 7 8 -6 8
-26 0z"/>
<path d="M1467 903 c-4 -3 -7 -11 -7 -17 0 -6 5 -5 12 2 6 6 9 14 7 17 -3 3
-9 2 -12 -2z"/>
<path d="M2522 642 c-23 -26 -26 -59 -4 -54 7 1 12 -4 12 -12 0 -8 4 -17 8
-20 13 -8 52 5 46 15 -3 5 0 9 6 9 8 0 7 6 -1 21 -10 20 -9 21 15 17 21 -4 26
-2 24 11 -2 9 -12 16 -22 16 -11 0 -21 6 -24 13 -6 20 -35 13 -60 -16z m13
-32 c3 -5 1 -10 -4 -10 -6 0 -11 5 -11 10 0 6 2 10 4 10 3 0 8 -4 11 -10z"/>
<path d="M2335 299 c-4 -6 -5 -12 -2 -15 2 -3 7 2 10 11 7 17 1 20 -8 4z"/>
<path d="M2595 270 c-3 -5 -1 -10 4 -10 6 0 11 5 11 10 0 6 -2 10 -4 10 -3 0
-8 -4 -11 -10z"/>
<path d="M2600 239 c0 -15 18 -19 23 -6 3 8 -1 14 -9 14 -8 0 -14 -4 -14 -8z"/>
<path d="M2535 231 c-3 -5 -1 -12 5 -16 5 -3 10 1 10 9 0 18 -6 21 -15 7z"/>
<path d="M2082 101 c10 -17 48 -36 48 -25 0 10 -36 44 -47 44 -11 0 -11 -4 -1
-19z"/>
</g>
</svg>
